<svg width="34" height="26" viewBox="0 0 34 26" fill="none" xmlns="http://www.w3.org/2000/svg">
    <path
        d="M31.875 25.5C31.875 25.5 34 25.5 34 23.375C34 21.25 31.875 14.875 23.375 14.875C14.875 14.875 12.75 21.25 12.75 23.375C12.75 25.5 14.875 25.5 14.875 25.5H31.875ZM14.9218 23.375C14.9061 23.3728 14.8905 23.37 14.875 23.3665C14.8771 22.8055 15.2299 21.1777 16.49 19.7115C17.663 18.3366 19.7243 17 23.375 17C27.0236 17 29.0849 18.3388 30.26 19.7115C31.5201 21.1777 31.8708 22.8076 31.875 23.3665L31.858 23.3708C31.8481 23.3724 31.8382 23.3738 31.8282 23.375H14.9218ZM23.375 10.625C24.5022 10.625 25.5832 10.1772 26.3802 9.3802C27.1772 8.58317 27.625 7.50217 27.625 6.375C27.625 5.24783 27.1772 4.16683 26.3802 3.3698C25.5832 2.57277 24.5022 2.125 23.375 2.125C22.2478 2.125 21.1668 2.57277 20.3698 3.3698C19.5728 4.16683 19.125 5.24783 19.125 6.375C19.125 7.50217 19.5728 8.58317 20.3698 9.3802C21.1668 10.1772 22.2478 10.625 23.375 10.625ZM29.75 6.375C29.75 7.21218 29.5851 8.04116 29.2647 8.81461C28.9444 9.58806 28.4748 10.2908 27.8828 10.8828C27.2908 11.4748 26.5881 11.9444 25.8146 12.2647C25.0412 12.5851 24.2122 12.75 23.375 12.75C22.5378 12.75 21.7088 12.5851 20.9354 12.2647C20.1619 11.9444 19.4592 11.4748 18.8672 10.8828C18.2752 10.2908 17.8056 9.58806 17.4853 8.81461C17.1649 8.04116 17 7.21218 17 6.375C17 4.68425 17.6716 3.06274 18.8672 1.86719C20.0627 0.67165 21.6842 0 23.375 0C25.0658 0 26.6873 0.67165 27.8828 1.86719C29.0784 3.06274 29.75 4.68425 29.75 6.375ZM14.739 15.47C13.889 15.2023 13.0127 15.0264 12.1252 14.9451C11.6266 14.8977 11.1259 14.8743 10.625 14.875C2.125 14.875 0 21.25 0 23.375C0 24.7924 0.707625 25.5 2.125 25.5H11.084C10.769 24.8366 10.6119 24.1093 10.625 23.375C10.625 21.2288 11.4261 19.0357 12.9412 17.204C13.4576 16.5793 14.059 15.9949 14.739 15.47ZM10.455 17C9.19733 18.8897 8.51793 21.1051 8.5 23.375H2.125C2.125 22.8225 2.4735 21.1863 3.74 19.7115C4.89813 18.36 6.9105 17.0425 10.455 17.0021V17ZM3.1875 7.4375C3.1875 5.74675 3.85915 4.12524 5.05469 2.92969C6.25024 1.73415 7.87175 1.0625 9.5625 1.0625C11.2533 1.0625 12.8748 1.73415 14.0703 2.92969C15.2659 4.12524 15.9375 5.74675 15.9375 7.4375C15.9375 9.12825 15.2659 10.7498 14.0703 11.9453C12.8748 13.1409 11.2533 13.8125 9.5625 13.8125C7.87175 13.8125 6.25024 13.1409 5.05469 11.9453C3.85915 10.7498 3.1875 9.12825 3.1875 7.4375ZM9.5625 3.1875C8.43533 3.1875 7.35433 3.63527 6.5573 4.4323C5.76027 5.22933 5.3125 6.31033 5.3125 7.4375C5.3125 8.56467 5.76027 9.64567 6.5573 10.4427C7.35433 11.2397 8.43533 11.6875 9.5625 11.6875C10.6897 11.6875 11.7707 11.2397 12.5677 10.4427C13.3647 9.64567 13.8125 8.56467 13.8125 7.4375C13.8125 6.31033 13.3647 5.22933 12.5677 4.4323C11.7707 3.63527 10.6897 3.1875 9.5625 3.1875Z"
        fill="currentColor" />
</svg>
